# xmcd
#
# Track frame offsets:
#	150
#	19937
#	37780
#	59457
#	74492
#	93963
#
# Disc length: 1506 seconds
#
# Revision: 1
# Processed by: cddbd v1.5.1PL2 Copyright (c) Steve Scherf et al.
# Submitted via: audiograbber 1.83.01
#
DISCID=4805e006
DTITLE=Fetsum - Meine Musik (EP)
DYEAR=2005
DGENRE=Soul
TTITLE0=Du Kannst Es Nicht Versteh'n
TTITLE1=Meine Musik
TTITLE2=Vor and Zurück
TTITLE3=Keine Kohle, Baby
TTITLE4=Seventeen
TTITLE5=Rocco and Bunny
EXTD=
EXTT0=
EXTT1=
EXTT2=
EXTT3=
EXTT4=
EXTT5=
PLAYORDER=
